# AST/ASF file generated using VICON BodyLanguage
# -----------------------------------------------
:version 1.10
:name VICON
:units
  mass 1.0
  length 0.45
  angle deg
:documentation
   .ast/.asf automatically generated from VICON data using
   VICON BodyBuilder and BodyLanguage model FoxedUp or BRILLIANT.MOD
:root
   order TX TY TZ RX RY RZ
   axis XYZ
   position 0 0 0  
   orientation 0 0 0 
:bonedata
  begin
     id 1 
     name lhipjoint
     direction 0.624716 -0.669793 0.401383 
     length 2.38238 
     axis 0 0 0  XYZ
  end
  begin
     id 2 
     name lfemur
     direction 0.34202 -0.939693 0  
     length 6.4574  
     axis 0 0 20  XYZ
    dof rx ry rz
    limits (-160.0 20.0)
           (-70.0 70.0)
           (-60.0 70.0)
  end
  begin
     id 3 
     name ltibia
     direction 0.34202 -0.939693 0   
     length 7.68739   
     axis 0 0 20   XYZ
    dof rx
    limits (-10.0 170.0)
  end
  begin
     id 4 
     name lfoot
     direction 0.0681309 -0.187188 0.979959   
     length 2.46615   
     axis -90 7.62852e-016 20   XYZ
    dof rx rz
    limits (-45.0 90.0)
           (-70.0 20.0)
  end
  begin
     id 5 
     name ltoes
     direction 1.53566e-011 -4.21819e-011 1   
     length 1.2376   
     axis -90 7.62852e-016 20   XYZ
    dof rx
    limits (-90.0 20.0)
  end
  begin
     id 6 
     name rhipjoint
     direction -0.644473 -0.655875 0.393043   
     length 2.43293  
     axis 0 0 0  XYZ 
  end
  begin
     id 7 
     name rfemur
     direction -0.34202 -0.939693 0   
     length 6.7025   
     axis 0 0 -20   XYZ
    dof rx ry rz
    limits (-160.0 20.0)
           (-70.0 70.0)
           (-70.0 60.0)
  end
  begin
     id 8 
     name rtibia
     direction -0.34202 -0.939693 0   
     length 7.80547   
     axis 0 0 -20   XYZ
    dof rx
    limits (-10.0 170.0)
 end
 begin
     id 9 
     name rfoot
     direction -0.0756734 -0.207911 0.975216   
     length 2.40315  
     axis -90 -7.62852e-016 -20   XYZ
    dof rx rz
    limits (-45.0 90.0)
           (-20.0 70.0)
  end
  begin
     id 10 
     name rtoes
     direction -1.5353e-011 -4.21879e-011 1   
     length 1.20477   
     axis -90 -7.62852e-016 -20   XYZ
    dof rx
    limits (-90.0 20.0)
  end
  begin
     id 11 
     name lowerback
     direction 0.0160353 0.987463 -0.157037   
     length 2.18572   
     axis 0 0 0   XYZ
    dof rx ry rz
    limits (-20.0 45.0)
           (-30.0 30.0)
           (-30.0 30.0)
  end
  begin
     id 12 
     name upperback
     direction -0.00499661 0.999756 0.0215076   
     length 2.18016   
     axis 0 0 0   XYZ
    dof rx ry rz
    limits (-20.0 45.0)
           (-30.0 30.0)
           (-30.0 30.0)
  end
  begin
     id 13 
     name thorax
     direction -0.00921346 0.995333 0.0960619   
     length 2.24923   
     axis 0 0 0   XYZ
    dof rx ry rz
    limits (-20.0 45.0)
           (-30.0 30.0)
           (-30.0 30.0)
  end
  begin
     id 14 
     name lowerneck
     direction 0.0274184 0.991181 0.12965   
     length 1.70911   
     axis 0 0 0   XYZ
    dof rx ry rz
    limits (-20.0 45.0)
           (-30.0 30.0)
           (-30.0 30.0)
  end
  begin
     id 15 
     name upperneck
     direction 0.0015627 0.999959 -0.00893559   
     length 1.69312   
     axis 0 0 0   XYZ
    dof rx ry rz
    limits (-20.0 45.0)
           (-30.0 30.0)
           (-30.0 30.0)
  end
  begin
     id 16
     name head
     direction -0.00230242 0.999856 -0.0168327  
     length 1.80241  
     axis 0 0 0   XYZ
    dof rx ry rz
    limits (-20.0 45.0)
           (-30.0 30.0)
           (-30.0 30.0)
  end
  begin
     id 17 
     name lclavicle
     direction 0.955523 0.290741 -0.0494489  
     length 3.84275  
     axis 0 0 0   XYZ
    dof ry rz
    limits (-20.0 10.0)
           (0.0 20.0)
  end
  begin
     id 18 
     name lhumerus
     direction 1 -4.48967e-011 -3.18382e-028   
     length 5.17714   
     axis 180 -30 -90   XYZ
    dof rx ry rz
    limits (-60.0 90.0)
           (-90.0 90.0)
           (-90.0 90.0)
  end
  begin
     id 19
     name lradius
     direction 1 -4.48968e-011 -2.22911e-027   
     length 3.43679   
     axis 180 -30 -90   XYZ
    dof rx
    limits (-10.0 170.0)
  end
  begin
     id 20
     name lwrist
     direction 1 -4.48951e-011 -6.32245e-027   
     length 1.7184   
     axis 3.57107e-015 90 90   XYZ
    dof ry
    limits (-180.0 0.0)
 end
  begin
     id 21 
     name lhand
     direction 1 -4.48924e-011 -1.26431e-026   
     length 0.573117   
     axis 8.06912e-015 90 90   XYZ
    dof rx rz
    limits (-90.0 90.0)
           (-45.0 45.0)
  end
  begin
     id 22 
     name lfingers
     direction 1 -4.49001e-011 -2.52965e-026   
     length 0.462062   
     axis 1.61381e-014 90 90   XYZ
    dof rx
    limits (0.0 90.0)
  end
  begin
     id 23
     name lthumb
     direction 0.707107 -6.35008e-011 0.707107   
     length 0.663431   
     axis -90 45 -1.62303e-014   XYZ
    dof rx rz
    limits (-45.0 45.0)
           (-45.0 45.0)
  end
  begin
     id 24 
     name rclavicle
     direction -0.963917 0.256881 -0.0698287   
     length 3.73057  
     axis 0 0 0   XYZ 
    dof ry rz
    limits (-10.0 20.0)
           (-20.0 0.0)
  end
  begin
     id 25 
     name rhumerus
     direction -1 -4.48962e-011 -2.73982e-027  
     length 5.23908   
     axis 180 30 90   XYZ
    dof rx ry rz
    limits (-90.0 60.0)
           (-90.0 90.0)
           (-90.0 90.0)
  end
  begin
     id 26 
     name rradius
     direction -1 -4.48968e-011 -4.33218e-027   
     length 3.46485   
     axis 180 30 90   XYZ
    dof rx
    limits (-10.0 170.0)
  end
  begin
     id 27 
     name rwrist
     direction -1 -4.48989e-011 -6.32372e-027   
     length 1.73243   
     axis 3.57107e-015 -90 -90   XYZ
    dof ry
    limits (-180.0 0.0)
  end
  begin
     id 28
     name rhand
     direction -1 -4.48948e-011 -1.26448e-026   
     length 0.608752   
     axis 8.06912e-015 -90 -90   XYZ
    dof rx rz
    limits (-90.0 90.0)
           (-45.0 45.0)
  end
  begin
     id 29
     name rfingers
     direction -1 -4.48962e-011 -2.52913e-026   
     length 0.490792   
     axis 1.61381e-014 -90 -90   XYZ
    dof rx
    limits (0.0 90.0)
  end
  begin
     id 30
     name rthumb
     direction -0.707107 -6.34878e-011 0.707107   
     length 0.704682   
     axis -90 -45 1.62303e-014   XYZ
    dof rx rz
    limits (-45.0 45.0)
           (-45.0 45.0)
  end
:hierarchy
  begin
    root lhipjoint rhipjoint lowerback
    lhipjoint lfemur
    lfemur ltibia
    ltibia lfoot
    lfoot ltoes
    rhipjoint rfemur
    rfemur rtibia
    rtibia rfoot
    rfoot rtoes
    lowerback upperback
    upperback thorax
    thorax lowerneck lclavicle rclavicle
    lowerneck upperneck
    upperneck head
    lclavicle lhumerus
    lhumerus lradius
    lradius lwrist
    lwrist lhand lthumb
    lhand lfingers
    rclavicle rhumerus
    rhumerus rradius
    rradius rwrist
    rwrist rhand rthumb
    rhand rfingers
  end

#!OML:ASF G:\JayActor3\Patient Classification 1\Patient 1\Session 6\male.ASF
:FULLY-SPECIFIED
:DEGREES
582
root 5.323 16.4517 -4.92251 0.553842 -44.4496 -3.24247
lowerback 0.478866 1.29473 1.5245
upperback 2.33962 1.69308 0.643641
thorax 2.15464 0.863691 -0.169675
lowerneck 1.83653 9.88965 11.9119
upperneck -7.95836 12.9842 -12.4443
head -1.01621 6.52373 -5.65584
rclavicle 5.3588e-014 3.47873e-016
rhumerus -23.7923 0.308339 -81.3279
rradius 41.3628
rwrist 1.56597
rhand -2.81948 -9.25283
rfingers 7.12502
rthumb 22.8872 -37.9146
lclavicle 5.3588e-014 3.47873e-016
lhumerus -30.4156 -9.18151 93.0015
lradius 29.8393
lwrist 20.1365
lhand -16.4868 11.7587
lfingers 7.12502
lthumb 9.73056 41.5139
rfemur -11.603 -8.74584 17.832
rtibia 40.6348
rfoot -39.2219 -23.6248
rtoes 12.992
lfemur -1.97323 13.385 -20.7135
ltibia 20.2957
lfoot -20.4004 18.9153
ltoes 1.4225
583
root 5.34461 16.4463 -4.89337 0.296314 -44.1451 -3.01761
lowerback 0.640968 1.2757 1.19152
upperback 2.34852 1.67497 0.53926
thorax 2.06556 0.849204 -0.0947056
lowerneck 1.85716 9.86039 11.9037
upperneck -7.99855 12.9477 -12.3662
head -1.04233 6.50395 -5.63595
rclavicle 1.45361e-015 3.57812e-015
rhumerus -24.043 0.309379 -81.4875
rradius 41.6672
rwrist 1.62205
rhand -3.31251 -9.17189
rfingers 7.12502
rthumb 22.414 -37.8914
lclavicle 1.45361e-015 3.57812e-015
lhumerus -30.4504 -9.43312 92.9904
lradius 29.4474
lwrist 19.9584
lhand -16.3712 11.6602
lfingers 7.12502
lthumb 9.84207 41.4102
rfemur -11.9906 -8.84272 17.4583
rtibia 41.5816
rfoot -38.884 -23.8809
rtoes 12.0781
lfemur -1.76971 13.5722 -20.9338
ltibia 20.1245
lfoot -20.3411 18.4002
ltoes 1.5882
584
root 5.36581 16.4416 -4.86447 0.0530007 -43.8324 -2.81423
lowerback 0.806477 1.25153 0.881658
upperback 2.36445 1.64822 0.438084
thorax 1.98259 0.830956 -0.029263
lowerneck 1.86851 9.83711 11.8762
upperneck -8.03845 12.9179 -12.2802
head -1.06788 6.4875 -5.61001
rclavicle -9.53359e-014 1.09332e-015
rhumerus -24.3034 0.300763 -81.6526
rradius 41.9493
rwrist 1.68375
rhand -3.86617 -9.09381
rfingers 7.12502
rthumb 21.8825 -37.8764
lclavicle -9.53359e-014 1.09332e-015
lhumerus -30.4658 -9.70112 92.9829
lradius 29.0274
lwrist 19.8098
lhand -16.3227 11.617
lfingers 7.12502
lthumb 9.88879 41.3647
rfemur -12.4034 -8.96138 17.0947
rtibia 42.5563
rfoot -38.4379 -24.2403
rtoes 11.2153
lfemur -1.55523 13.7378 -21.1421
ltibia 19.9339
lfoot -20.2424 17.9358
ltoes 1.64021
585
root 5.38655 16.4377 -4.83548 -0.167405 -43.5186 -2.64783
lowerback 0.964729 1.22477 0.598645
upperback 2.39495 1.61605 0.351814
thorax 1.91928 0.81045 0.0369752
lowerneck 1.86826 9.82113 11.8258
upperneck -8.07936 12.8956 -12.1969
head -1.09217 6.47513 -5.58052
rclavicle -1.87355e-014 1.59028e-015
rhumerus -24.5617 0.284519 -81.8081
rradius 42.2059
rwrist 1.75181
rhand -4.46779 -9.01692
rfingers 7.12502
rthumb 21.3047 -37.8659
lclavicle -1.87355e-014 1.59028e-015
lhumerus -30.4369 -9.93018 92.9694
lradius 28.553
lwrist 19.6102
lhand -16.2688 11.5684
lfingers 7.12502
lthumb 9.94087 41.3137
rfemur -12.8342 -9.09227 16.7557
rtibia 43.5464
rfoot -37.8751 -24.7137
rtoes 10.4302
lfemur -1.32846 13.8752 -21.3264
ltibia 19.7314
lfoot -20.1235 17.5235
ltoes 1.61585
586
root 5.40693 16.4347 -4.80624 -0.353105 -43.2046 -2.53311
lowerback 1.11048 1.19512 0.35254
upperback 2.44123 1.57827 0.287165
thorax 1.87991 0.787595 0.105379
lowerneck 1.86407 9.81222 11.7528
upperneck -8.1314 12.8801 -12.1274
head -1.11861 6.46704 -5.55166
rclavicle -4.83047e-014 -3.97569e-016
rhumerus -24.8143 0.257551 -81.9467
rradius 42.4341
rwrist 1.82675
rhand -5.10247 -8.93999
rfingers 7.12502
rthumb 20.695 -37.8566
lclavicle -4.83047e-014 -3.97569e-016
lhumerus -30.3693 -10.1382 92.9637
lradius 28.0394
lwrist 19.4071
lhand -16.2387 11.5381
lfingers 7.12502
lthumb 9.96986 41.282
rfemur -13.2792 -9.23118 16.4564
rtibia 44.5394
rfoot -37.181 -25.312
rtoes 9.7274
lfemur -1.09625 13.9828 -21.4764
ltibia 19.5246
lfoot -19.981 17.1734
ltoes 1.47675
587
root 5.42695 16.4329 -4.77662 -0.502485 -42.8957 -2.46844
lowerback 1.24075 1.16861 0.145167
upperback 2.49873 1.54345 0.241067
thorax 1.86158 0.766673 0.171798
lowerneck 1.86676 9.80511 11.6761
upperneck -8.19142 12.8663 -12.0774
head -1.14699 6.46061 -5.52867
rclavicle 1.02461e-013 -6.55989e-015
rhumerus -25.0703 0.205538 -82.065
rradius 42.6343
rwrist 1.90621
rhand -5.7513 -8.86833
rfingers 7.12502
rthumb 20.0714 -37.8516
lclavicle 1.02461e-013 -6.55989e-015
lhumerus -30.2642 -10.3033 92.9517
lradius 27.4743
lwrist 19.1359
lhand -16.1843 11.4919
lfingers 7.12502
lthumb 10.0223 41.2333
rfemur -13.7361 -9.36386 16.1983
rtibia 45.5239
rfoot -36.3739 -25.9911
rtoes 9.20996
lfemur -0.860475 14.0423 -21.5946
ltibia 19.3191
lfoot -19.8641 16.8647
ltoes 1.38557
588
root 5.4464 16.432 -4.7466 -0.610784 -42.5873 -2.45686
lowerback 1.35432 1.14614 -0.0172092
upperback 2.5633 1.51322 0.212019
thorax 1.86081 0.748593 0.231102
lowerneck 1.86588 9.79939 11.5862
upperneck -8.2494 12.8532 -12.0355
head -1.1743 6.4551 -5.50579
rclavicle 6.65307e-014 -8.94531e-015
rhumerus -25.336 0.116769 -82.1618
rradius 42.8062
rwrist 1.98657
rhand -6.3993 -8.8079
rfingers 7.12502
rthumb 19.4485 -37.8553
lclavicle 6.65307e-014 -8.94531e-015
lhumerus -30.1281 -10.4211 92.929
lradius 26.8602
lwrist 18.7927
lhand -16.0918 11.4081
lfingers 7.12502
lthumb 10.1115 41.1451
rfemur -14.2009 -9.48456 15.988
rtibia 46.4893
rfoot -35.4764 -26.7169
rtoes 8.90546
lfemur -0.627608 14.054 -21.6784
ltibia 19.12
lfoot -19.7668 16.5986
ltoes 1.31916
589
root 5.46526 16.432 -4.71608 -0.680029 -42.2829 -2.48984
lowerback 1.4531 1.12759 -0.133795
upperback 2.62791 1.48785 0.193362
thorax 1.86941 0.733604 0.275841
lowerneck 1.87122 9.79488 11.4959
upperneck -8.30455 12.8421 -12.004
head -1.20077 6.45111 -5.48611
rclavicle -1.58655e-014 1.39149e-015
rhumerus -25.6184 -0.0104477 -82.2428
rradius 42.9473
rwrist 2.06714
rhand -7.01844 -8.75659
rfingers 7.12502
rthumb 18.8531 -37.8629
lclavicle -1.58655e-014 1.39149e-015
lhumerus -29.9632 -10.4507 92.8742
lradius 26.1884
lwrist 18.3284
lhand -15.9446 11.2733
lfingers 7.12502
lthumb 10.2536 41.0033
rfemur -14.6733 -9.58589 15.8212
rtibia 47.4252
rfoot -34.5101 -27.4496
rtoes 8.8461
lfemur -0.404453 14.0124 -21.7362
ltibia 18.9336
lfoot -19.7028 16.3748
ltoes 1.31414
590
root 5.48306 16.4326 -4.68532 -0.716466 -41.9794 -2.55834
lowerback 1.54225 1.11266 -0.210756
upperback 2.68755 1.46725 0.178158
thorax 1.87931 0.721683 0.302148
lowerneck 1.87653 9.79246 11.4075
upperneck -8.3466 12.8346 -11.9724
head -1.22285 6.44904 -5.46599
rclavicle 3.71603e-014 -3.97569e-015
rhumerus -25.9227 -0.178347 -82.3142
rradius 43.057
rwrist 2.14015
rhand -7.59632 -8.72034
rfingers 7.12502
rthumb 18.2972 -37.8798
lclavicle 3.71603e-014 -3.97569e-015
lhumerus -29.7914 -10.4211 92.7878
lradius 25.4853
lwrist 17.7894
lhand -15.7722 11.113
lfingers 7.12502
lthumb 10.4199 40.8348
rfemur -15.1458 -9.65689 15.6942
rtibia 48.3224
rfoot -33.5082 -28.1171
rtoes 9.13653
lfemur -0.193936 13.93 -21.7714
ltibia 18.7634
lfoot -19.6639 16.1849
ltoes 1.34488
591
root 5.49906 16.4332 -4.65455 -0.727638 -41.6625 -2.65942
lowerback 1.62323 1.09375 -0.261255
upperback 2.7427 1.4413 0.167745
thorax 1.88978 0.707536 0.318706
lowerneck 1.87957 9.79624 11.3214
upperneck -8.3696 12.8368 -11.9366
head -1.23807 6.45164 -5.44374
rclavicle 2.85753e-015 1.19271e-015
rhumerus -26.2494 -0.38274 -82.3789
rradius 43.1353
rwrist 2.21034
rhand -8.1101 -8.69551
rfingers 7.12502
rthumb 17.8029 -37.9006
lclavicle 2.85753e-015 1.19271e-015
lhumerus -29.6221 -10.3323 92.669
lradius 24.7662
lwrist 17.2031
lhand -15.6006 10.9426
lfingers 7.12502
lthumb 10.5855 40.656
rfemur -15.5985 -9.70317 15.6107
rtibia 49.1704
rfoot -32.4899 -28.6417
rtoes 9.71977
lfemur 0.00878945 13.8112 -21.7776
ltibia 18.6133
lfoot -19.6499 16.006
ltoes 1.42509
